<svg class="dashboard-sidebar-item--icon" xmlns="http://www.w3.org/2000/svg" width="43" height="45" viewBox="0 0 43 45">
  <g>
    <g>
        <g>
            <path fill="none" stroke="#5b9de3" stroke-linecap="round" stroke-linejoin="round" stroke-miterlimit="50" stroke-width="2.5" d="M18.873 5.233a3.538 3.538 0 0 0 5.252 0l1.698-1.882a3.538 3.538 0 0 1 6.153 2.552l-.13 2.528a3.541 3.541 0 0 0 3.714 3.715l2.529-.13a3.538 3.538 0 0 1 2.555 6.162l-1.882 1.697a3.538 3.538 0 0 0 0 5.252l1.882 1.697a3.538 3.538 0 0 1-2.552 6.16l-2.528-.13a3.54 3.54 0 0 0-3.715 3.715l.13 2.529a3.538 3.538 0 0 1-6.156 2.546l-1.698-1.882a3.538 3.538 0 0 0-5.252 0l-1.697 1.882a3.538 3.538 0 0 1-6.16-2.552l.13-2.528a3.536 3.536 0 0 0-3.713-3.71l-2.529.13a3.538 3.538 0 0 1-2.546-6.16l1.88-1.697a3.538 3.538 0 0 0 0-5.252l-1.88-1.697A3.538 3.538 0 0 1 4.9 12.027l2.528.13a3.54 3.54 0 0 0 3.717-3.724l-.13-2.529a3.538 3.538 0 0 1 6.16-2.546z"></path>
        </g>
        <g>
            <path fill="none" stroke="#5b9de3" stroke-linecap="round" stroke-linejoin="round" stroke-miterlimit="50" stroke-width="2.5" d="M21.497 30.624a8.127 8.127 0 1 0 0-16.254 8.127 8.127 0 0 0 0 16.254z"></path>
        </g>
    </g>
  </g>
</svg>