<svg class="dashboard-sidebar-item--icon" xmlns="http://www.w3.org/2000/svg" width="43" height="43" viewBox="0 0 43 43">
  <g>
      <g>
          <path fill="none" stroke="#5b9de3" stroke-linecap="round" stroke-linejoin="round" stroke-miterlimit="50" stroke-width="2.5" d="M14.855 24.16a5.315 5.315 0 1 0 0-10.63 5.315 5.315 0 0
          0 0 10.63z"></path>
      </g>
      <g>
          <path fill="none" stroke="#5b9de3" stroke-linecap="round" stroke-linejoin="round" stroke-miterlimit="50" stroke-width="2.5" d="M22.824 34.782a7.972 7.972 0 0
          0-15.944 0"></path>
      </g>
      <g>
          <path fill="none" stroke="#5b9de3" stroke-linecap="round" stroke-linejoin="round" stroke-miterlimit="50" stroke-width="2.5" d="M28.144 25.49v11.958a3.986 3.986
          0 0 1-3.986 3.986h-18.6a3.986 3.986 0 0 1-3.988-3.986V8.216A3.986 3.986 0 0 1
          5.558 4.23H12.2v0"></path>
      </g>
      <g>
          <path fill="none" stroke="#5b9de3" stroke-linecap="round" stroke-linejoin="round" stroke-miterlimit="50" stroke-width="2.5" d="M30.799 20.17v0l-9.058-9.45a5.357
          5.357 0 0 1-1.005-6.187v0A5.36 5.36 0 0 1 29.32 3.14l1.479 1.48v0l1.48-1.48a5.36
          5.36 0 0 1 8.584 1.393v0a5.36 5.36 0 0 1-1.004 6.186z"></path>
      </g>
  </g>
</svg>